<svg viewBox="0 0 760 400" xmlns="http://www.w3.org/2000/svg" font-family="Arial, Helvetica, sans-serif">
  <line x1="60" y1="340" x2="700" y2="340" stroke="#adb5bd" stroke-width="2"/>
  <line x1="380.0" y1="70" x2="380.0" y2="340" stroke="#868e96" stroke-width="1.5" stroke-dasharray="6 5"/>
  <path d="M60.0,330.6 L66.4,329.7 L72.8,328.6 L79.2,327.5 L85.6,326.3 L92.0,325.0 L98.4,323.6 L104.8,322.2 L111.2,320.6 L117.6,318.9 L124.0,317.2 L130.4,315.3 L136.8,313.4 L143.2,311.3 L149.6,309.2 L156.0,307.0 L162.4,304.6 L168.8,302.2 L175.2,299.7 L181.6,297.1 L188.0,294.4 L194.4,291.7 L200.8,288.9 L207.2,286.1 L213.6,283.2 L220.0,280.2 L226.4,277.3 L232.8,274.3 L239.2,271.3 L245.6,268.3 L252.0,265.3 L258.4,262.4 L264.8,259.5 L271.2,256.7 L277.6,253.9 L284.0,251.3 L290.4,248.7 L296.8,246.2 L303.2,243.9 L309.6,241.7 L316.0,239.6 L322.4,237.7 L328.8,236.0 L335.2,234.4 L341.6,233.1 L348.0,231.9 L354.4,230.9 L360.8,230.2 L367.2,229.6 L373.6,229.3 L380.0,229.2 L386.4,229.3 L392.8,229.6 L399.2,230.2 L405.6,230.9 L412.0,231.9 L418.4,233.1 L424.8,234.4 L431.2,236.0 L437.6,237.7 L444.0,239.6 L450.4,241.7 L456.8,243.9 L463.2,246.2 L469.6,248.7 L476.0,251.3 L482.4,253.9 L488.8,256.7 L495.2,259.5 L501.6,262.4 L508.0,265.3 L514.4,268.3 L520.8,271.3 L527.2,274.3 L533.6,277.3 L540.0,280.2 L546.4,283.2 L552.8,286.1 L559.2,288.9 L565.6,291.7 L572.0,294.4 L578.4,297.1 L584.8,299.7 L591.2,302.2 L597.6,304.6 L604.0,307.0 L610.4,309.2 L616.8,311.3 L623.2,313.4 L629.6,315.3 L636.0,317.2 L642.4,318.9 L648.8,320.6 L655.2,322.2 L661.6,323.6 L668.0,325.0 L674.4,326.3 L680.8,327.5 L687.2,328.6 L693.6,329.7 L700.0,330.6" fill="none" stroke="#e8590c" stroke-width="3"/>
  <path d="M60.0,340.0 L66.4,340.0 L72.8,340.0 L79.2,340.0 L85.6,340.0 L92.0,340.0 L98.4,340.0 L104.8,340.0 L111.2,340.0 L117.6,339.9 L124.0,339.9 L130.4,339.9 L136.8,339.8 L143.2,339.7 L149.6,339.6 L156.0,339.5 L162.4,339.2 L168.8,338.9 L175.2,338.5 L181.6,338.0 L188.0,337.2 L194.4,336.3 L200.8,335.1 L207.2,333.5 L213.6,331.5 L220.0,329.0 L226.4,326.0 L232.8,322.3 L239.2,317.8 L245.6,312.5 L252.0,306.3 L258.4,299.0 L264.8,290.7 L271.2,281.2 L277.6,270.7 L284.0,259.1 L290.4,246.4 L296.8,232.9 L303.2,218.6 L309.6,203.8 L316.0,188.8 L322.4,173.7 L328.8,158.9 L335.2,144.8 L341.6,131.7 L348.0,120.0 L354.4,109.8 L360.8,101.6 L367.2,95.6 L373.6,91.9 L380.0,90.7 L386.4,91.9 L392.8,95.6 L399.2,101.6 L405.6,109.8 L412.0,120.0 L418.4,131.7 L424.8,144.8 L431.2,158.9 L437.6,173.7 L444.0,188.8 L450.4,203.8 L456.8,218.6 L463.2,232.9 L469.6,246.4 L476.0,259.1 L482.4,270.7 L488.8,281.2 L495.2,290.7 L501.6,299.0 L508.0,306.3 L514.4,312.5 L520.8,317.8 L527.2,322.3 L533.6,326.0 L540.0,329.0 L546.4,331.5 L552.8,333.5 L559.2,335.1 L565.6,336.3 L572.0,337.2 L578.4,338.0 L584.8,338.5 L591.2,338.9 L597.6,339.2 L604.0,339.5 L610.4,339.6 L616.8,339.7 L623.2,339.8 L629.6,339.9 L636.0,339.9 L642.4,339.9 L648.8,340.0 L655.2,340.0 L661.6,340.0 L668.0,340.0 L674.4,340.0 L680.8,340.0 L687.2,340.0 L693.6,340.0 L700.0,340.0" fill="none" stroke="#1971c2" stroke-width="3"/>
  <text x="380.0" y="366" font-size="15" text-anchor="middle" fill="#495057">mean</text>
  <text x="472.0" y="110" font-size="16" fill="#1971c2">small &#963; (tight)</text>
  <text x="532.0" y="250" font-size="16" fill="#c2410c">large &#963; (spread out)</text>
</svg>